<?xml version="1.0" standalone="no"?>
<!DOCTYPE svg PUBLIC "-//W3C//DTD SVG 20010904//EN"
 "http://www.w3.org/TR/2001/REC-SVG-20010904/DTD/svg10.dtd">
<svg version="1.0" xmlns="http://www.w3.org/2000/svg"
 width="561.000000pt" height="101.000000pt" viewBox="0 0 561.000000 101.000000"
 preserveAspectRatio="xMidYMid meet">

<g transform="translate(0.000000,101.000000) scale(0.100000,-0.100000)"
fill="#000000" stroke="none">
<path d="M360 981 c-140 -45 -245 -137 -308 -268 -37 -78 -37 -78 -37 -208 0
-129 0 -130 37 -208 88 -183 250 -288 448 -289 225 -2 409 129 480 342 19 55
21 82 18 175 -3 103 -6 115 -40 188 -65 135 -184 236 -322 273 -72 19 -209 17
-276 -5z m10 -195 c0 -15 -12 -33 -36 -51 -19 -15 -49 -45 -65 -68 l-29 -40 0
85 c0 46 3 88 7 91 3 4 33 7 65 7 54 0 58 -1 58 -24z m206 -31 c194 -57 256
-294 115 -435 -70 -70 -162 -95 -253 -69 l-38 10 0 81 c0 77 1 80 18 65 98
-89 251 13 210 139 -33 98 -175 114 -234 27 -16 -24 -19 -52 -22 -201 l-4
-172 -64 0 -64 0 0 170 c0 142 3 178 19 219 32 86 81 134 165 163 63 21 89 22
152 3z m-52 -160 c25 19 46 8 46 -25 0 -20 6 -31 20 -35 26 -8 26 -46 0 -63
-11 -6 -17 -18 -14 -25 2 -7 -1 -21 -9 -31 -11 -15 -17 -16 -40 -5 -21 9 -30
9 -42 -1 -23 -19 -45 -5 -45 29 0 21 -6 32 -20 36 -26 8 -27 51 -1 60 12 3 19
15 19 31 0 34 21 47 47 30 17 -11 24 -11 39 -1z"/>
<path d="M450 570 c0 -15 5 -20 18 -18 9 2 17 10 17 18 0 8 -8 16 -17 18 -13
2 -18 -3 -18 -18z"/>
<path d="M525 580 c-8 -14 3 -30 21 -30 8 0 14 9 14 20 0 21 -24 28 -35 10z"/>
<path d="M475 521 c-9 -28 5 -51 30 -51 25 0 39 23 30 51 -8 25 -52 25 -60 0z
m48 -27 c-6 -16 -29 -19 -38 -4 -4 6 -1 17 5 26 15 18 42 0 33 -22z"/>
<path d="M421 520 c-17 -10 -7 -40 14 -40 8 0 15 9 15 19 0 24 -12 32 -29 21z"/>
<path d="M563 514 c-7 -19 11 -39 26 -30 16 10 13 33 -4 40 -9 3 -18 -1 -22
-10z"/>
<path d="M450 441 c0 -11 4 -22 8 -25 14 -9 35 12 29 28 -9 23 -37 20 -37 -3z"/>
<path d="M525 450 c-8 -14 3 -30 21 -30 8 0 14 9 14 20 0 21 -24 28 -35 10z"/>
<path d="M4260 800 c-47 -47 -11 -120 60 -120 49 0 80 27 80 70 0 43 -31 70
-80 70 -27 0 -47 -7 -60 -20z"/>
<path d="M1810 485 l0 -295 65 0 65 0 0 295 0 295 -65 0 -65 0 0 -295z"/>
<path d="M1220 470 l0 -280 65 0 64 0 3 98 3 97 80 6 c110 8 144 25 184 89 25
41 28 114 7 164 -32 78 -112 106 -297 106 l-109 0 0 -280z m260 145 c24 -22
26 -72 3 -97 -12 -13 -31 -18 -75 -18 l-58 0 0 63 c0 35 3 67 8 71 13 14 101
0 122 -19z"/>
<path d="M3780 470 l0 -280 155 0 155 0 0 50 0 49 -87 3 -88 3 -3 228 -2 227
-65 0 -65 0 0 -280z"/>
<path d="M2780 685 c0 -52 -1 -55 -25 -55 -24 0 -25 -3 -25 -55 0 -51 2 -55
24 -55 23 0 23 -2 28 -118 7 -173 38 -212 167 -212 l61 0 0 53 0 53 -42 10
-43 9 -3 103 -3 102 46 0 45 0 0 55 0 55 -45 0 -45 0 0 55 0 55 -70 0 -70 0 0
-55z"/>
<path d="M3299 625 c-61 -20 -116 -76 -134 -139 -19 -62 -19 -90 0 -153 54
-183 341 -203 425 -29 18 39 22 60 18 121 -3 63 -8 80 -34 117 -57 82 -172
116 -275 83z m142 -134 c56 -57 32 -170 -41 -186 -43 -9 -82 13 -98 57 -42
111 61 206 139 129z"/>
<path d="M4696 625 c-95 -34 -140 -101 -141 -210 0 -95 31 -157 99 -200 42
-26 58 -29 121 -29 63 0 79 3 120 29 32 20 57 45 72 75 l24 45 -73 3 c-56 2
-75 -1 -84 -12 -30 -42 -97 -39 -128 6 -33 46 -27 48 140 48 l157 0 -7 56 c-3
30 -15 73 -26 94 -46 91 -168 133 -274 95z m117 -106 c25 -11 51 -52 40 -63
-11 -11 -163 -7 -163 5 0 18 58 69 79 69 11 0 31 -5 44 -11z"/>
<path d="M5376 630 c-16 -5 -39 -19 -52 -31 l-24 -22 0 26 c0 27 -1 27 -70 27
l-70 0 0 -220 0 -220 70 0 70 0 0 140 c0 136 1 142 25 165 26 26 72 33 105 15
30 -16 40 -66 40 -196 l0 -124 65 0 65 0 0 163 c0 149 -2 165 -23 201 -12 22
-36 48 -53 58 -37 22 -109 31 -148 18z"/>
<path d="M2130 478 c0 -168 11 -208 64 -258 22 -20 40 -25 97 -28 62 -4 74 -1
109 22 l40 26 0 -25 c0 -24 2 -25 65 -25 l65 0 0 220 0 220 -64 0 -64 0 -4
-141 c-3 -140 -3 -141 -31 -165 -37 -31 -81 -31 -112 1 -24 23 -25 29 -25 165
l0 140 -70 0 -70 0 0 -152z"/>
<path d="M4250 410 l0 -220 70 0 70 0 0 220 0 220 -70 0 -70 0 0 -220z"/>
</g>
</svg>
