<svg id="Layer_1" data-name="Layer 1" xmlns="http://www.w3.org/2000/svg" viewBox="0 0 134.31 23.97"><defs><style>.cls-1{fill:#0b132a;}.cls-2{fill:#fff;}</style></defs><circle class="cls-1" cx="11.98" cy="11.98" r="11.98"/><path class="cls-2" d="M16.84,20a6,6,0,0,0,.45.43,3,3,0,0,0,1.64.71,3.05,3.05,0,0,0,2.3-.6,3.12,3.12,0,0,0,1.25-2.05A3.19,3.19,0,1,0,16.14,18v7.19H13.06V25.1c0-2.43,0-4.86,0-7.29a5.92,5.92,0,0,1,.78-2.88,6.2,6.2,0,0,1,2.65-2.57,5.85,5.85,0,0,1,1.91-.61,6.3,6.3,0,0,1,7.07,4.91,6.26,6.26,0,0,1,.11,1.78A6.29,6.29,0,0,1,19,24.21a6.31,6.31,0,0,1-2-.47s-.07,0-.07-.09V20Z" transform="translate(-7.35 -5.97)"/><path class="cls-2" d="M13.06,14.87V10.74h3.08v.93a.11.11,0,0,1-.06.11,6.56,6.56,0,0,0-1.89,1.46,6.85,6.85,0,0,0-1.09,1.58l0,0Z" transform="translate(-7.35 -5.97)"/><path class="cls-2" d="M20.87,17c.21.09.43.17.63.27a.94.94,0,0,1,.39.32.51.51,0,0,1,0,.66,1.36,1.36,0,0,1-.6.43l-.38.14c0,.21.05.42.07.63a1.22,1.22,0,0,1-.06.46.54.54,0,0,1-.69.38,1.82,1.82,0,0,1-.77-.45l-.11-.1a1.73,1.73,0,0,1-1,.59.53.53,0,0,1-.57-.31,1.36,1.36,0,0,1-.09-.69,3.85,3.85,0,0,1,.07-.49l-.48-.19a1.28,1.28,0,0,1-.52-.37.53.53,0,0,1,0-.73,1.19,1.19,0,0,1,.44-.33c.17-.08.34-.14.52-.21,0-.13-.05-.28-.07-.42a1.67,1.67,0,0,1,0-.59.56.56,0,0,1,.77-.43,1.84,1.84,0,0,1,.69.4l.13.12.34-.28a1.27,1.27,0,0,1,.63-.3.54.54,0,0,1,.58.33,1.32,1.32,0,0,1,.09.65C20.92,16.69,20.9,16.86,20.87,17Zm-1.54,1.81.47,0a.08.08,0,0,0,.07,0c.15-.26.29-.53.44-.8a.08.08,0,0,0,0-.07c-.15-.27-.3-.54-.46-.8a.05.05,0,0,0-.05,0h-.95a.11.11,0,0,0-.06,0c-.15.27-.3.54-.44.81a.11.11,0,0,0,0,.08l.45.78a.1.1,0,0,0,.07,0Zm-1.49-.19.25-.66a.17.17,0,0,0,0-.07c0-.12-.1-.23-.14-.34l-.13-.35c-.2.09-.4.17-.59.27a1,1,0,0,0-.26.21.32.32,0,0,0,0,.47.53.53,0,0,0,.13.13A2.22,2.22,0,0,0,17.84,18.65Zm3-1.4c0,.13-.09.27-.14.4a1.19,1.19,0,0,0-.1.28.82.82,0,0,0,.11.28c.05.15.11.29.16.44l.25-.08a1.55,1.55,0,0,0,.6-.37.34.34,0,0,0,0-.47l-.13-.13A2.2,2.2,0,0,0,20.81,17.25ZM20.67,17c0-.15,0-.31.06-.46a1.35,1.35,0,0,0-.05-.53.33.33,0,0,0-.42-.23l-.17.05a2.37,2.37,0,0,0-.63.46l.47.58a.07.07,0,0,0,.06,0ZM18,18.92c0,.06,0,.12,0,.18a1.94,1.94,0,0,0,0,.72.36.36,0,0,0,.53.3,1.78,1.78,0,0,0,.71-.49c-.15-.19-.3-.39-.46-.58a.11.11,0,0,0-.06,0Zm1.15-2.65L19,16.15a1.59,1.59,0,0,0-.63-.36.35.35,0,0,0-.47.27,1.62,1.62,0,0,0,0,.58c0,.12.05.24.07.35l.68-.11a.08.08,0,0,0,.07,0C18.87,16.65,19,16.47,19.15,16.27Zm1.54,2.64L20,19s0,0,0,0l-.45.58.23.2a1.51,1.51,0,0,0,.5.27.35.35,0,0,0,.51-.29A1.83,1.83,0,0,0,20.69,18.91Zm-1,.13H19l.37.44Zm0-2.18-.37-.44-.35.44ZM18,17.19l.19.52.33-.61Zm2.09,1.61.53-.1-.19-.51Zm-1.56,0-.33-.58-.17.49Zm2.06-1.61-.51-.09.18.29.16.3Z" transform="translate(-7.35 -5.97)"/><path d="M19.31,17.47a.49.49,0,1,0,.49.49A.49.49,0,0,0,19.31,17.47Z" transform="translate(-7.35 -5.97)"/><path class="cls-2" d="M19.31,17.47a.49.49,0,1,1-.49.49A.49.49,0,0,1,19.31,17.47Z" transform="translate(-7.35 -5.97)"/><path class="cls-1" d="M41.68,20.7h-2v4.78H36.42V12.15h5.26c3.27,0,4.9,1.84,4.9,4.29C46.58,18.64,45.08,20.7,41.68,20.7Zm-.25-2.59c1.29,0,1.84-.64,1.84-1.67s-.55-1.67-1.84-1.67H39.66v3.34Z" transform="translate(-7.35 -5.97)"/><path class="cls-1" d="M50.55,11.42H53.8V25.48H50.55Z" transform="translate(-7.35 -5.97)"/><path class="cls-1" d="M68.9,25.48H65.65V24a3.85,3.85,0,0,1-3.21,1.56c-2.45,0-4.1-1.69-4.1-4.52v-6.2h3.23v5.76a2,2,0,1,0,4.08,0V14.88H68.9Z" transform="translate(-7.35 -5.97)"/><path class="cls-1" d="M74,17.58H72.74v-2.7H74V12.3h3.25v2.58h2.13v2.7H77.28v4.26c0,.62.27.89,1,.89h1.16v2.75H77.78c-2.21,0-3.75-.93-3.75-3.68Z" transform="translate(-7.35 -5.97)"/><path class="cls-1" d="M88.34,25.63a5.2,5.2,0,0,1-5.47-5.45,5.51,5.51,0,0,1,11,0A5.25,5.25,0,0,1,88.34,25.63Zm0-2.81c1.16,0,2.24-.85,2.24-2.64s-1.06-2.64-2.2-2.64-2.2.84-2.2,2.64S87.16,22.82,88.34,22.82Z" transform="translate(-7.35 -5.97)"/><path class="cls-1" d="M101.15,12.15V23h4.25v2.51H97.9V12.15Z" transform="translate(-7.35 -5.97)"/><path class="cls-1" d="M108.94,12a1.93,1.93,0,1,1,1.94,1.75A1.79,1.79,0,0,1,108.94,12Zm.3,2.85h3.25v10.6h-3.25Z" transform="translate(-7.35 -5.97)"/><path class="cls-1" d="M121.84,25.63a5.1,5.1,0,0,1-5.36-5.45,5.09,5.09,0,0,1,5.36-5.45A5,5,0,0,1,127.12,20a7.69,7.69,0,0,1-.06.95h-7.35a2,2,0,0,0,2,2,1.71,1.71,0,0,0,1.69-1h3.46A4.94,4.94,0,0,1,121.84,25.63Zm-2.11-6.47h4.06a1.83,1.83,0,0,0-2-1.83A2,2,0,0,0,119.73,19.16Z" transform="translate(-7.35 -5.97)"/><path class="cls-1" d="M138.43,19.73a2,2,0,1,0-4.07,0v5.75h-3.25V14.88h3.25v1.41a3.89,3.89,0,0,1,3.21-1.52c2.45,0,4.08,1.67,4.08,4.52v6.19h-3.22Z" transform="translate(-7.35 -5.97)"/></svg>